<svg xmlns="http://www.w3.org/2000/svg" xmlns:svg="http://www.w3.org/2000/svg" style="enable-background:new" id="svg8" width="14" height="14" version="1.1"><metadata id="metadata14"/><path id="path2" d="M 7.0000613,14 C 10.86599,14 14,10.866 14,7 14,3.134 10.86599,0 7.0000613,0 3.1340186,0 -3e-7,3.134 -3e-7,7 c 0,3.866 3.1340189,7 7.0000616,7" style="fill:#13c11e;fill-opacity:1;fill-rule:evenodd;stroke:none"/><path id="path4" d="M 1.2575398,7.1487621 7.2192566,13.110432 V 8.4487621 c 0,-0.54015 -0.7598487,-1.3 -1.2999987,-1.3 z M 0.71925791,14.948762 0.47688461,15.103 c 0,0 -0.2977767,-0.154238 0.2423733,-0.154238 H 5.3809773 Z" style="opacity:.5;fill:#000;fill-opacity:1;stroke:none;stroke-width:2.5999999;stroke-linecap:round;stroke-linejoin:round;stroke-miterlimit:4;stroke-dasharray:none;stroke-opacity:1"/><path id="path4-3" d="M 13.055123,7.228 7.1987166,1.1628474 7.1170896,5.8238024 C 7.1075996,6.3638705 7.854057,7.136909 8.3941238,7.1463678 Z m 0.674787,-7.7893777 0.245037,-0.1499693 c 0,0 0.29503,0.1594281 -0.245037,0.1499693 l -4.6610056,-0.081627 z" style="opacity:.5;fill:#000;fill-opacity:1;stroke:none;stroke-width:2.5999999;stroke-linecap:round;stroke-linejoin:round;stroke-miterlimit:4;stroke-dasharray:none;stroke-opacity:1;enable-background:new"/></svg>