<svg xmlns="http://www.w3.org/2000/svg" xmlns:svg="http://www.w3.org/2000/svg" style="enable-background:new" id="svg8" width="28" height="28" version="1.1"><metadata id="metadata14"/><g id="g6" transform="matrix(1.9999999,0,0,1.9999999,-9.9999987,-2066.7243)"><path style="fill:#13c11e;fill-opacity:1;fill-rule:evenodd;stroke:none" id="path2" d="m 12.000061,1047.3622 c 3.865929,0 6.999939,-3.134 6.999939,-7 0,-3.866 -3.13401,-7 -6.999939,-7 -3.8660427,0 -7.0000616,3.134 -7.0000616,7 0,3.866 3.1340189,7 7.0000616,7"/><path style="opacity:1;fill:#39ea49;fill-opacity:1;fill-rule:evenodd;stroke:none" id="path4" d="m 12.000067,1046.8623 c 3.589781,0 6.499933,-2.9103 6.499933,-6.5001 0,-3.5899 -2.910152,-6.5 -6.499933,-6.5 -3.5899136,0 -6.5000676,2.9101 -6.5000676,6.5 0,3.5898 2.910154,6.5001 6.5000676,6.5001"/></g></svg>